<svg width="890" height="180"><style type="text/css">text{text-anchor:middle;font-size:15px;font-family:&quot;Lato Bold&quot;}circle,line,rect{stroke:#000;stroke-width:4px}rect{stroke:#fff}line{stroke-linecap:round}circle,rect{fill:#fff}</style><rect width="890" height="180" x="0" y="0"/><line x1="20" x2="20" y1="160" y2="130"/><line x1="15" x2="20" y1="140" y2="130"/><line x1="25" x2="20" y1="140" y2="130"/><line x1="20" x2="50" y1="160" y2="160"/><line x1="40" x2="50" y1="155" y2="160"/><line x1="40" x2="50" y1="165" y2="160"/><line x1="20" x2="44" y1="160" y2="142"/><line x1="33" x2="44" y1="144" y2="142"/><line x1="39" x2="44" y1="152" y2="142"/><text x="60" y="160" fill="#000" dy=".3em" style="font-family:&quot;Libertinus Serif Semibold Italic&quot;;font-size:20px">x</text><text x="52" y="131" fill="#000" dy=".3em" style="font-family:&quot;Libertinus Serif Semibold Italic&quot;;font-size:20px">y</text><text x="20" y="115" fill="#000" dy=".3em" style="font-family:&quot;Libertinus Serif Semibold Italic&quot;;font-size:20px">z</text><line x1="100" x2="200" y1="160" y2="160"/><line x1="100" x2="130" y1="160" y2="120"/><line x1="100" x2="100" y1="160" y2="60"/><line x1="200" x2="230" y1="160" y2="120"/><line x1="200" x2="200" y1="160" y2="60"/><line x1="130" x2="230" y1="120" y2="120"/><line x1="130" x2="130" y1="120" y2="20"/><line x1="230" x2="230" y1="120" y2="20"/><line x1="100" x2="200" y1="60" y2="60"/><line x1="100" x2="130" y1="60" y2="20"/><line x1="200" x2="230" y1="60" y2="20"/><line x1="130" x2="230" y1="20" y2="20"/><circle cx="100" cy="160" r="12"/><text x="100" y="160" dy=".3em">0</text><circle cx="200" cy="160" r="12"/><text x="200" y="160" dy=".3em">1</text><circle cx="130" cy="120" r="12"/><text x="130" y="120" dy=".3em">2</text><circle cx="230" cy="120" r="12"/><text x="230" y="120" dy=".3em">3</text><circle cx="100" cy="60" r="12"/><text x="100" y="60" dy=".3em">4</text><circle cx="200" cy="60" r="12"/><text x="200" y="60" dy=".3em">5</text><circle cx="130" cy="20" r="12"/><text x="130" y="20" dy=".3em">6</text><circle cx="230" cy="20" r="12"/><text x="230" y="20" dy=".3em">7</text><line x1="340" x2="440" y1="120" y2="120"/><line x1="340" x2="340" y1="120" y2="20"/><line x1="440" x2="440" y1="120" y2="20"/><line x1="340" x2="440" y1="20" y2="20"/><circle cx="390" cy="120" r="12"/><text x="390" y="120" dy=".3em">5</text><circle cx="340" cy="70" r="12"/><text x="340" y="70" dy=".3em">6</text><circle cx="440" cy="70" r="12"/><text x="440" y="70" dy=".3em">7</text><circle cx="390" cy="20" r="12"/><text x="390" y="20" dy=".3em" style="font-size:10px">11</text><line x1="310" x2="340" y1="160" y2="120"/><line x1="410" x2="440" y1="160" y2="120"/><line x1="310" x2="340" y1="60" y2="20"/><line x1="410" x2="440" y1="60" y2="20"/><circle cx="325" cy="140" r="12"/><text x="325" y="140" dy=".3em">1</text><circle cx="425" cy="140" r="12"/><text x="425" y="140" dy=".3em">3</text><circle cx="325" cy="40" r="12"/><text x="325" y="40" dy=".3em">9</text><circle cx="425" cy="40" r="12"/><text x="425" y="40" dy=".3em" style="font-size:10px">10</text><line x1="310" x2="410" y1="160" y2="160"/><line x1="310" x2="310" y1="160" y2="60"/><line x1="410" x2="410" y1="160" y2="60"/><line x1="310" x2="410" y1="60" y2="60"/><circle cx="360" cy="160" r="12"/><text x="360" y="160" dy=".3em">0</text><circle cx="310" cy="110" r="12"/><text x="310" y="110" dy=".3em">2</text><circle cx="410" cy="110" r="12"/><text x="410" y="110" dy=".3em">4</text><circle cx="360" cy="60" r="12"/><text x="360" y="60" dy=".3em">8</text><line x1="550" x2="650" y1="120" y2="120"/><line x1="550" x2="550" y1="120" y2="20"/><line x1="650" x2="650" y1="120" y2="20"/><line x1="550" x2="650" y1="20" y2="20"/><circle cx="600" cy="70" r="12"/><text x="600" y="70" dy=".3em">4</text><line x1="520" x2="550" y1="160" y2="120"/><line x1="620" x2="650" y1="160" y2="120"/><line x1="520" x2="550" y1="60" y2="20"/><line x1="620" x2="650" y1="60" y2="20"/><circle cx="585" cy="140" r="12"/><text x="585" y="140" dy=".3em">0</text><circle cx="535" cy="90" r="12"/><text x="535" y="90" dy=".3em">2</text><circle cx="635" cy="90" r="12"/><text x="635" y="90" dy=".3em">3</text><circle cx="585" cy="40" r="12"/><text x="585" y="40" dy=".3em">5</text><line x1="520" x2="620" y1="160" y2="160"/><line x1="520" x2="520" y1="160" y2="60"/><line x1="620" x2="620" y1="160" y2="60"/><line x1="520" x2="620" y1="60" y2="60"/><circle cx="570" cy="110" r="12"/><text x="570" y="110" dy=".3em">1</text><line x1="730" x2="830" y1="160" y2="160"/><line x1="730" x2="760" y1="160" y2="120"/><line x1="730" x2="730" y1="160" y2="60"/><line x1="830" x2="860" y1="160" y2="120"/><line x1="830" x2="830" y1="160" y2="60"/><line x1="760" x2="860" y1="120" y2="120"/><line x1="760" x2="760" y1="120" y2="20"/><line x1="860" x2="860" y1="120" y2="20"/><line x1="730" x2="830" y1="60" y2="60"/><line x1="730" x2="760" y1="60" y2="20"/><line x1="830" x2="860" y1="60" y2="20"/><line x1="760" x2="860" y1="20" y2="20"/><circle cx="795" cy="90" r="12"/><text x="795" y="90" dy=".3em">0</text></svg>