<svg width="730" height="180"><style type="text/css">text{text-anchor:middle;font-size:15px;font-family:&quot;Lato Bold&quot;}circle,line,rect{stroke:#000;stroke-width:4px}rect{stroke:#fff}line{stroke-linecap:round}circle,rect{fill:#fff}</style><rect width="730" height="180" x="0" y="0"/><line x1="20" x2="20" y1="160" y2="130"/><line x1="15" x2="20" y1="140" y2="130"/><line x1="25" x2="20" y1="140" y2="130"/><line x1="20" x2="50" y1="160" y2="160"/><line x1="40" x2="50" y1="155" y2="160"/><line x1="40" x2="50" y1="165" y2="160"/><line x1="20" x2="44" y1="160" y2="142"/><line x1="33" x2="44" y1="144" y2="142"/><line x1="39" x2="44" y1="152" y2="142"/><text x="60" y="160" fill="#000" dy=".3em" style="font-family:&quot;Libertinus Serif Semibold Italic&quot;;font-size:20px">x</text><text x="52" y="131" fill="#000" dy=".3em" style="font-family:&quot;Libertinus Serif Semibold Italic&quot;;font-size:20px">y</text><text x="20" y="115" fill="#000" dy=".3em" style="font-family:&quot;Libertinus Serif Semibold Italic&quot;;font-size:20px">z</text><line x1="100" x2="200" y1="160" y2="160"/><line x1="100" x2="130" y1="160" y2="120"/><line x1="100" x2="100" y1="160" y2="60"/><line x1="200" x2="130" y1="160" y2="120"/><line x1="200" x2="200" y1="160" y2="60"/><line x1="130" x2="130" y1="120" y2="20"/><line x1="100" x2="200" y1="60" y2="60"/><line x1="100" x2="130" y1="60" y2="20"/><line x1="200" x2="130" y1="60" y2="20"/><circle cx="100" cy="160" r="12"/><text x="100" y="160" dy=".3em">0</text><circle cx="200" cy="160" r="12"/><text x="200" y="160" dy=".3em">1</text><circle cx="130" cy="120" r="12"/><text x="130" y="120" dy=".3em">2</text><circle cx="100" cy="60" r="12"/><text x="100" y="60" dy=".3em">3</text><circle cx="200" cy="60" r="12"/><text x="200" y="60" dy=".3em">4</text><circle cx="130" cy="20" r="12"/><text x="130" y="20" dy=".3em">5</text><line x1="300" x2="300" y1="120" y2="20"/><circle cx="300" cy="70" r="12"/><text x="300" y="70" dy=".3em">5</text><line x1="270" x2="300" y1="160" y2="120"/><line x1="270" x2="270" y1="160" y2="60"/><line x1="270" x2="300" y1="60" y2="20"/><line x1="370" x2="300" y1="60" y2="20"/><circle cx="285" cy="140" r="12"/><text x="285" y="140" dy=".3em">1</text><circle cx="270" cy="110" r="12"/><text x="270" y="110" dy=".3em">2</text><circle cx="285" cy="40" r="12"/><text x="285" y="40" dy=".3em">7</text><circle cx="335" cy="40" r="12"/><text x="335" y="40" dy=".3em">8</text><line x1="270" x2="370" y1="160" y2="160"/><line x1="370" x2="300" y1="160" y2="120"/><line x1="370" x2="370" y1="160" y2="60"/><line x1="270" x2="370" y1="60" y2="60"/><circle cx="320" cy="160" r="12"/><text x="320" y="160" dy=".3em">0</text><circle cx="335" cy="140" r="12"/><text x="335" y="140" dy=".3em">3</text><circle cx="370" cy="110" r="12"/><text x="370" y="110" dy=".3em">4</text><circle cx="320" cy="60" r="12"/><text x="320" y="60" dy=".3em">6</text><line x1="440" x2="540" y1="160" y2="160"/><line x1="440" x2="470" y1="160" y2="120"/><line x1="440" x2="440" y1="160" y2="60"/><line x1="540" x2="470" y1="160" y2="120"/><line x1="540" x2="540" y1="160" y2="60"/><line x1="470" x2="470" y1="120" y2="20"/><line x1="440" x2="540" y1="60" y2="60"/><line x1="440" x2="470" y1="60" y2="20"/><line x1="540" x2="470" y1="60" y2="20"/><circle cx="483.333" cy="146.667" r="12"/><text x="483.333" y="146.667" dy=".3em">0</text><circle cx="490" cy="110" r="12"/><text x="490" y="110" dy=".3em">1</text><circle cx="455" cy="90" r="12"/><text x="455" y="90" dy=".3em">2</text><circle cx="505" cy="90" r="12"/><text x="505" y="90" dy=".3em">3</text><circle cx="483.333" cy="46.667" r="12"/><text x="483.333" y="46.667" dy=".3em">4</text><line x1="610" x2="710" y1="160" y2="160"/><line x1="610" x2="640" y1="160" y2="120"/><line x1="610" x2="610" y1="160" y2="60"/><line x1="710" x2="640" y1="160" y2="120"/><line x1="710" x2="710" y1="160" y2="60"/><line x1="640" x2="640" y1="120" y2="20"/><line x1="610" x2="710" y1="60" y2="60"/><line x1="610" x2="640" y1="60" y2="20"/><line x1="710" x2="640" y1="60" y2="20"/><circle cx="653.333" cy="96.667" r="12"/><text x="653.333" y="96.667" dy=".3em">0</text></svg>