<svg width="890" height="140"><style type="text/css">text{text-anchor:middle;font-size:15px;font-family:&quot;Lato Bold&quot;}circle,line,rect{stroke:#000;stroke-width:4px}rect{stroke:#fff}line{stroke-linecap:round}circle,rect{fill:#fff}</style><rect width="890" height="140" x="0" y="0"/><line x1="20" x2="20" y1="120" y2="90"/><line x1="15" x2="20" y1="100" y2="90"/><line x1="25" x2="20" y1="100" y2="90"/><line x1="20" x2="50" y1="120" y2="120"/><line x1="40" x2="50" y1="115" y2="120"/><line x1="40" x2="50" y1="125" y2="120"/><line x1="20" x2="44" y1="120" y2="102"/><line x1="33" x2="44" y1="104" y2="102"/><line x1="39" x2="44" y1="112" y2="102"/><text x="60" y="120" fill="#000" dy=".3em" style="font-family:&quot;Libertinus Serif Semibold Italic&quot;;font-size:20px">x</text><text x="52" y="91" fill="#000" dy=".3em" style="font-family:&quot;Libertinus Serif Semibold Italic&quot;;font-size:20px">y</text><text x="20" y="75" fill="#000" dy=".3em" style="font-family:&quot;Libertinus Serif Semibold Italic&quot;;font-size:20px">z</text><line x1="100" x2="200" y1="120" y2="120"/><line x1="100" x2="130" y1="120" y2="80"/><line x1="100" x2="100" y1="120" y2="20"/><line x1="200" x2="230" y1="120" y2="80"/><line x1="200" x2="100" y1="120" y2="20"/><line x1="130" x2="230" y1="80" y2="80"/><line x1="130" x2="100" y1="80" y2="20"/><line x1="230" x2="100" y1="80" y2="20"/><circle cx="100" cy="120" r="12"/><text x="100" y="120" dy=".3em">0</text><circle cx="200" cy="120" r="12"/><text x="200" y="120" dy=".3em">1</text><circle cx="130" cy="80" r="12"/><text x="130" y="80" dy=".3em">2</text><circle cx="230" cy="80" r="12"/><text x="230" y="80" dy=".3em">3</text><circle cx="100" cy="20" r="12"/><text x="100" y="20" dy=".3em">4</text><line x1="310" x2="310" y1="120" y2="20"/><circle cx="310" cy="70" r="12"/><text x="310" y="70" dy=".3em">2</text><line x1="310" x2="340" y1="120" y2="80"/><line x1="410" x2="440" y1="120" y2="80"/><line x1="340" x2="310" y1="80" y2="20"/><line x1="440" x2="310" y1="80" y2="20"/><circle cx="325" cy="100" r="12"/><text x="325" y="100" dy=".3em">1</text><circle cx="425" cy="100" r="12"/><text x="425" y="100" dy=".3em">3</text><circle cx="325" cy="50" r="12"/><text x="325" y="50" dy=".3em">6</text><circle cx="375" cy="50" r="12"/><text x="375" y="50" dy=".3em">7</text><line x1="310" x2="410" y1="120" y2="120"/><line x1="410" x2="310" y1="120" y2="20"/><line x1="340" x2="440" y1="80" y2="80"/><circle cx="360" cy="120" r="12"/><text x="360" y="120" dy=".3em">0</text><circle cx="360" cy="70" r="12"/><text x="360" y="70" dy=".3em">4</text><circle cx="390" cy="80" r="12"/><text x="390" y="80" dy=".3em">5</text><line x1="550" x2="650" y1="80" y2="80"/><circle cx="596.667" cy="73.333" r="12"/><text x="596.667" y="73.333" dy=".3em">3</text><line x1="520" x2="550" y1="120" y2="80"/><line x1="620" x2="650" y1="120" y2="80"/><line x1="550" x2="520" y1="80" y2="20"/><line x1="650" x2="520" y1="80" y2="20"/><circle cx="585" cy="100" r="12"/><text x="585" y="100" dy=".3em">0</text><circle cx="530" cy="73.333" r="12"/><text x="530" y="73.333" dy=".3em">2</text><circle cx="573.333" cy="60" r="12"/><text x="573.333" y="60" dy=".3em">4</text><line x1="520" x2="620" y1="120" y2="120"/><line x1="620" x2="520" y1="120" y2="20"/><line x1="520" x2="520" y1="120" y2="20"/><circle cx="553.333" cy="86.667" r="12"/><text x="553.333" y="86.667" dy=".3em">1</text><line x1="730" x2="760" y1="120" y2="80"/><line x1="830" x2="860" y1="120" y2="80"/><line x1="760" x2="860" y1="80" y2="80"/><line x1="760" x2="730" y1="80" y2="20"/><line x1="860" x2="730" y1="80" y2="20"/><circle cx="782" cy="84" r="12"/><text x="782" y="84" dy=".3em">0</text><line x1="730" x2="830" y1="120" y2="120"/><line x1="730" x2="730" y1="120" y2="20"/><line x1="830" x2="730" y1="120" y2="20"/></svg>