<svg width="560" height="140"><style type="text/css">text{text-anchor:middle;font-size:15px;font-family:&quot;Lato Bold&quot;}circle,line,rect{stroke:#000;stroke-width:4px}rect{stroke:#fff}line{stroke-linecap:round}circle,rect{fill:#fff}</style><rect width="560" height="140" x="0" y="0"/><line x1="20" x2="20" y1="120" y2="90"/><line x1="15" x2="20" y1="100" y2="90"/><line x1="25" x2="20" y1="100" y2="90"/><line x1="20" x2="50" y1="120" y2="120"/><line x1="40" x2="50" y1="115" y2="120"/><line x1="40" x2="50" y1="125" y2="120"/><text x="60" y="120" fill="#000" dy=".3em" style="font-family:&quot;Libertinus Serif Semibold Italic&quot;;font-size:20px">x</text><text x="20" y="75" fill="#000" dy=".3em" style="font-family:&quot;Libertinus Serif Semibold Italic&quot;;font-size:20px">y</text><line x1="100" x2="200" y1="120" y2="120"/><line x1="100" x2="100" y1="120" y2="20"/><line x1="200" x2="200" y1="120" y2="20"/><line x1="100" x2="200" y1="20" y2="20"/><circle cx="100" cy="120" r="12"/><text x="100" y="120" dy=".3em">0</text><circle cx="200" cy="120" r="12"/><text x="200" y="120" dy=".3em">1</text><circle cx="100" cy="20" r="12"/><text x="100" y="20" dy=".3em">2</text><circle cx="200" cy="20" r="12"/><text x="200" y="20" dy=".3em">3</text><line x1="270" x2="370" y1="120" y2="120"/><line x1="270" x2="270" y1="120" y2="20"/><line x1="370" x2="370" y1="120" y2="20"/><line x1="270" x2="370" y1="20" y2="20"/><circle cx="320" cy="120" r="12"/><text x="320" y="120" dy=".3em">0</text><circle cx="270" cy="70" r="12"/><text x="270" y="70" dy=".3em">1</text><circle cx="370" cy="70" r="12"/><text x="370" y="70" dy=".3em">2</text><circle cx="320" cy="20" r="12"/><text x="320" y="20" dy=".3em">3</text><line x1="440" x2="540" y1="120" y2="120"/><line x1="440" x2="440" y1="120" y2="20"/><line x1="540" x2="540" y1="120" y2="20"/><line x1="440" x2="540" y1="20" y2="20"/><circle cx="490" cy="70" r="12"/><text x="490" y="70" dy=".3em">0</text></svg>