<svg width="730" height="140"><style type="text/css">text{text-anchor:middle;font-size:15px;font-family:&quot;Lato Bold&quot;}circle,line,rect{stroke:#000;stroke-width:4px}rect{stroke:#fff}line{stroke-linecap:round}circle,rect{fill:#fff}</style><rect width="730" height="140" x="0" y="0"/><line x1="20" x2="20" y1="120" y2="90"/><line x1="15" x2="20" y1="100" y2="90"/><line x1="25" x2="20" y1="100" y2="90"/><line x1="20" x2="50" y1="120" y2="120"/><line x1="40" x2="50" y1="115" y2="120"/><line x1="40" x2="50" y1="125" y2="120"/><line x1="20" x2="44" y1="120" y2="102"/><line x1="33" x2="44" y1="104" y2="102"/><line x1="39" x2="44" y1="112" y2="102"/><text x="60" y="120" fill="#000" dy=".3em" style="font-family:&quot;Libertinus Serif Semibold Italic&quot;;font-size:20px">x</text><text x="52" y="91" fill="#000" dy=".3em" style="font-family:&quot;Libertinus Serif Semibold Italic&quot;;font-size:20px">y</text><text x="20" y="75" fill="#000" dy=".3em" style="font-family:&quot;Libertinus Serif Semibold Italic&quot;;font-size:20px">z</text><line x1="130" x2="100" y1="80" y2="20"/><line x1="200" x2="100" y1="120" y2="20"/><line x1="200" x2="130" y1="120" y2="80"/><line x1="100" x2="100" y1="120" y2="20"/><line x1="100" x2="130" y1="120" y2="80"/><line x1="100" x2="200" y1="120" y2="120"/><circle cx="100" cy="120" r="12"/><text x="100" y="120" dy=".3em">0</text><circle cx="200" cy="120" r="12"/><text x="200" y="120" dy=".3em">1</text><circle cx="130" cy="80" r="12"/><text x="130" y="80" dy=".3em">2</text><circle cx="100" cy="20" r="12"/><text x="100" y="20" dy=".3em">3</text><line x1="300" x2="270" y1="80" y2="20"/><line x1="370" x2="300" y1="120" y2="80"/><line x1="270" x2="300" y1="120" y2="80"/><circle cx="285" cy="50" r="12"/><text x="285" y="50" dy=".3em">0</text><circle cx="335" cy="100" r="12"/><text x="335" y="100" dy=".3em">2</text><circle cx="285" cy="100" r="12"/><text x="285" y="100" dy=".3em">4</text><line x1="370" x2="270" y1="120" y2="20"/><line x1="270" x2="270" y1="120" y2="20"/><line x1="270" x2="370" y1="120" y2="120"/><circle cx="320" cy="70" r="12"/><text x="320" y="70" dy=".3em">1</text><circle cx="270" cy="70" r="12"/><text x="270" y="70" dy=".3em">3</text><circle cx="320" cy="120" r="12"/><text x="320" y="120" dy=".3em">5</text><line x1="470" x2="440" y1="80" y2="20"/><line x1="540" x2="470" y1="120" y2="80"/><line x1="440" x2="470" y1="120" y2="80"/><circle cx="483.333" cy="73.333" r="12"/><text x="483.333" y="73.333" dy=".3em">0</text><circle cx="450" cy="73.333" r="12"/><text x="450" y="73.333" dy=".3em">1</text><circle cx="483.333" cy="106.667" r="12"/><text x="483.333" y="106.667" dy=".3em">3</text><line x1="540" x2="440" y1="120" y2="20"/><line x1="440" x2="440" y1="120" y2="20"/><line x1="440" x2="540" y1="120" y2="120"/><circle cx="473.333" cy="86.667" r="12"/><text x="473.333" y="86.667" dy=".3em">2</text><line x1="640" x2="610" y1="80" y2="20"/><line x1="710" x2="610" y1="120" y2="20"/><line x1="710" x2="640" y1="120" y2="80"/><line x1="610" x2="610" y1="120" y2="20"/><line x1="610" x2="640" y1="120" y2="80"/><line x1="610" x2="710" y1="120" y2="120"/><circle cx="642.5" cy="85" r="12"/><text x="642.5" y="85" dy=".3em">0</text></svg>